<mxfile host="app.diagrams.net" modified="2021-03-05T02:40:52.306Z" agent="5.0 (Windows NT 10.0; Win64; x64) AppleWebKit/537.36 (KHTML, like Gecko) Chrome/88.0.4324.190 Safari/537.36" etag="D9qF-iDu2j2pWcMouBwu" version="14.4.3" type="github">
  <diagram id="qsA4LFFCEY-i6ZN9s8wt" name="Page-1">
    <mxGraphModel dx="2500" dy="944" grid="1" gridSize="10" guides="1" tooltips="1" connect="1" arrows="1" fold="1" page="1" pageScale="1" pageWidth="827" pageHeight="1169" math="0" shadow="0">
      <root>
        <mxCell id="0" />
        <mxCell id="1" parent="0" />
        <mxCell id="mzdtHxwl5CKynUgDvnSu-6" value="" style="group" vertex="1" connectable="0" parent="1">
          <mxGeometry x="-550" y="410" width="1281.7" height="430" as="geometry" />
        </mxCell>
        <mxCell id="cQgMK63ZiCmz1B0YtC4z-3" value="adapter" style="aspect=fixed;html=1;points=[];align=center;image;fontSize=12;image=img/lib/azure2/app_services/API_Management_Services.svg;strokeWidth=2;" parent="mzdtHxwl5CKynUgDvnSu-6" vertex="1">
          <mxGeometry x="52.90999999999997" y="60" width="54.17" height="50" as="geometry" />
        </mxCell>
        <mxCell id="cQgMK63ZiCmz1B0YtC4z-9" value="api&amp;nbsp;层，统一数据入口，&lt;br&gt;适配器，将下发订单数&lt;br&gt;据转换成内部数据结构" style="text;html=1;align=left;verticalAlign=middle;resizable=0;points=[];autosize=1;" parent="mzdtHxwl5CKynUgDvnSu-6" vertex="1">
          <mxGeometry x="10" width="140" height="50" as="geometry" />
        </mxCell>
        <mxCell id="cQgMK63ZiCmz1B0YtC4z-12" value="wms_adapter" style="aspect=fixed;html=1;points=[];align=center;image;fontSize=12;image=img/lib/azure2/databases/Azure_Database_MySQL_Server.svg;strokeWidth=2;" parent="mzdtHxwl5CKynUgDvnSu-6" vertex="1">
          <mxGeometry y="180" width="37.5" height="50" as="geometry" />
        </mxCell>
        <mxCell id="cQgMK63ZiCmz1B0YtC4z-6" style="edgeStyle=orthogonalEdgeStyle;rounded=0;orthogonalLoop=1;jettySize=auto;html=1;exitX=0.5;exitY=1;exitDx=0;exitDy=0;exitPerimeter=0;" parent="mzdtHxwl5CKynUgDvnSu-6" source="cQgMK63ZiCmz1B0YtC4z-3" target="cQgMK63ZiCmz1B0YtC4z-12" edge="1">
          <mxGeometry as="geometry">
            <mxPoint x="81" y="190" as="targetPoint" />
          </mxGeometry>
        </mxCell>
        <mxCell id="cQgMK63ZiCmz1B0YtC4z-39" style="edgeStyle=orthogonalEdgeStyle;rounded=0;orthogonalLoop=1;jettySize=auto;html=1;endArrow=none;endFill=0;" parent="mzdtHxwl5CKynUgDvnSu-6" edge="1">
          <mxGeometry as="geometry">
            <mxPoint x="245" y="396" as="targetPoint" />
            <mxPoint x="245" y="116" as="sourcePoint" />
          </mxGeometry>
        </mxCell>
        <mxCell id="cQgMK63ZiCmz1B0YtC4z-14" value="core" style="aspect=fixed;html=1;points=[];align=center;image;fontSize=12;image=img/lib/azure2/app_services/App_Services.svg;strokeWidth=2;" parent="mzdtHxwl5CKynUgDvnSu-6" vertex="1">
          <mxGeometry x="220" y="60" width="50" height="50" as="geometry" />
        </mxCell>
        <mxCell id="cQgMK63ZiCmz1B0YtC4z-18" style="edgeStyle=orthogonalEdgeStyle;rounded=0;orthogonalLoop=1;jettySize=auto;html=1;entryX=0;entryY=0.5;entryDx=0;entryDy=0;entryPerimeter=0;" parent="mzdtHxwl5CKynUgDvnSu-6" source="cQgMK63ZiCmz1B0YtC4z-3" target="cQgMK63ZiCmz1B0YtC4z-14" edge="1">
          <mxGeometry as="geometry" />
        </mxCell>
        <mxCell id="cQgMK63ZiCmz1B0YtC4z-20" value="wms_core" style="aspect=fixed;html=1;points=[];align=center;image;fontSize=12;image=img/lib/azure2/databases/Azure_Database_MySQL_Server.svg;strokeWidth=2;" parent="mzdtHxwl5CKynUgDvnSu-6" vertex="1">
          <mxGeometry x="182.5" y="180" width="37.5" height="50" as="geometry" />
        </mxCell>
        <mxCell id="cQgMK63ZiCmz1B0YtC4z-21" style="edgeStyle=orthogonalEdgeStyle;rounded=0;orthogonalLoop=1;jettySize=auto;html=1;" parent="mzdtHxwl5CKynUgDvnSu-6" source="cQgMK63ZiCmz1B0YtC4z-14" target="cQgMK63ZiCmz1B0YtC4z-20" edge="1">
          <mxGeometry as="geometry" />
        </mxCell>
        <mxCell id="cQgMK63ZiCmz1B0YtC4z-24" value="接收&amp;nbsp;adapter&amp;nbsp;转换的数&lt;br&gt;据通知&amp;nbsp;op&amp;nbsp;新订单信息" style="text;html=1;align=left;verticalAlign=middle;resizable=0;points=[];autosize=1;" parent="mzdtHxwl5CKynUgDvnSu-6" vertex="1">
          <mxGeometry x="180" y="10" width="130" height="30" as="geometry" />
        </mxCell>
        <mxCell id="cQgMK63ZiCmz1B0YtC4z-25" value="op" style="aspect=fixed;html=1;points=[];align=center;image;fontSize=12;image=img/lib/azure2/app_services/App_Services.svg;strokeWidth=2;" parent="mzdtHxwl5CKynUgDvnSu-6" vertex="1">
          <mxGeometry x="380" y="60" width="50" height="50" as="geometry" />
        </mxCell>
        <mxCell id="cQgMK63ZiCmz1B0YtC4z-26" style="edgeStyle=orthogonalEdgeStyle;rounded=0;orthogonalLoop=1;jettySize=auto;html=1;entryX=-0.06;entryY=0.5;entryDx=0;entryDy=0;entryPerimeter=0;" parent="mzdtHxwl5CKynUgDvnSu-6" source="cQgMK63ZiCmz1B0YtC4z-14" target="cQgMK63ZiCmz1B0YtC4z-25" edge="1">
          <mxGeometry as="geometry" />
        </mxCell>
        <mxCell id="cQgMK63ZiCmz1B0YtC4z-27" value="op" style="dashed=0;outlineConnect=0;html=1;align=center;labelPosition=center;verticalLabelPosition=bottom;verticalAlign=top;shape=mxgraph.weblogos.mongodb;strokeWidth=2;" parent="mzdtHxwl5CKynUgDvnSu-6" vertex="1">
          <mxGeometry x="360" y="180" width="25" height="50" as="geometry" />
        </mxCell>
        <mxCell id="cQgMK63ZiCmz1B0YtC4z-28" style="edgeStyle=orthogonalEdgeStyle;rounded=0;orthogonalLoop=1;jettySize=auto;html=1;" parent="mzdtHxwl5CKynUgDvnSu-6" source="cQgMK63ZiCmz1B0YtC4z-25" target="cQgMK63ZiCmz1B0YtC4z-27" edge="1">
          <mxGeometry as="geometry" />
        </mxCell>
        <mxCell id="cQgMK63ZiCmz1B0YtC4z-29" value="" style="aspect=fixed;html=1;points=[];align=center;image;fontSize=12;image=img/lib/mscae/Cache_Redis_Product.svg;strokeWidth=2;" parent="mzdtHxwl5CKynUgDvnSu-6" vertex="1">
          <mxGeometry x="380" y="370" width="50" height="42" as="geometry" />
        </mxCell>
        <mxCell id="cQgMK63ZiCmz1B0YtC4z-32" style="edgeStyle=orthogonalEdgeStyle;rounded=0;orthogonalLoop=1;jettySize=auto;html=1;entryX=0;entryY=0.595;entryDx=0;entryDy=0;entryPerimeter=0;" parent="mzdtHxwl5CKynUgDvnSu-6" source="cQgMK63ZiCmz1B0YtC4z-3" target="cQgMK63ZiCmz1B0YtC4z-29" edge="1">
          <mxGeometry as="geometry">
            <mxPoint x="79.99499999999989" y="350" as="targetPoint" />
            <Array as="points">
              <mxPoint x="80" y="395" />
            </Array>
          </mxGeometry>
        </mxCell>
        <mxCell id="cQgMK63ZiCmz1B0YtC4z-40" style="edgeStyle=orthogonalEdgeStyle;rounded=0;orthogonalLoop=1;jettySize=auto;html=1;endArrow=classic;endFill=1;" parent="mzdtHxwl5CKynUgDvnSu-6" source="cQgMK63ZiCmz1B0YtC4z-25" target="cQgMK63ZiCmz1B0YtC4z-29" edge="1">
          <mxGeometry as="geometry" />
        </mxCell>
        <mxCell id="cQgMK63ZiCmz1B0YtC4z-37" value="wms_core" style="dashed=0;outlineConnect=0;html=1;align=center;labelPosition=center;verticalLabelPosition=bottom;verticalAlign=top;shape=mxgraph.weblogos.mongodb;strokeWidth=2;" parent="mzdtHxwl5CKynUgDvnSu-6" vertex="1">
          <mxGeometry x="270" y="180" width="25" height="50" as="geometry" />
        </mxCell>
        <mxCell id="cQgMK63ZiCmz1B0YtC4z-38" style="edgeStyle=orthogonalEdgeStyle;rounded=0;orthogonalLoop=1;jettySize=auto;html=1;" parent="mzdtHxwl5CKynUgDvnSu-6" source="cQgMK63ZiCmz1B0YtC4z-14" target="cQgMK63ZiCmz1B0YtC4z-37" edge="1">
          <mxGeometry as="geometry" />
        </mxCell>
        <mxCell id="cQgMK63ZiCmz1B0YtC4z-42" value="查询订单信息，分配&lt;span&gt;到&lt;br&gt;操作台，&lt;/span&gt;通知&amp;nbsp;mc&amp;nbsp;需要&lt;br&gt;的料箱，库位等信息" style="text;html=1;align=left;verticalAlign=middle;resizable=0;points=[];autosize=1;" parent="mzdtHxwl5CKynUgDvnSu-6" vertex="1">
          <mxGeometry x="350" width="140" height="50" as="geometry" />
        </mxCell>
        <mxCell id="cQgMK63ZiCmz1B0YtC4z-52" style="edgeStyle=orthogonalEdgeStyle;rounded=0;orthogonalLoop=1;jettySize=auto;html=1;entryX=0.98;entryY=0.595;entryDx=0;entryDy=0;entryPerimeter=0;endArrow=classic;endFill=1;" parent="mzdtHxwl5CKynUgDvnSu-6" source="cQgMK63ZiCmz1B0YtC4z-43" target="cQgMK63ZiCmz1B0YtC4z-29" edge="1">
          <mxGeometry as="geometry">
            <Array as="points">
              <mxPoint x="595" y="395" />
            </Array>
          </mxGeometry>
        </mxCell>
        <mxCell id="cQgMK63ZiCmz1B0YtC4z-43" value="station" style="aspect=fixed;html=1;points=[];align=center;image;fontSize=12;image=img/lib/azure2/app_services/App_Services.svg;strokeWidth=2;" parent="mzdtHxwl5CKynUgDvnSu-6" vertex="1">
          <mxGeometry x="570" y="60" width="50" height="50" as="geometry" />
        </mxCell>
        <mxCell id="cQgMK63ZiCmz1B0YtC4z-44" style="edgeStyle=orthogonalEdgeStyle;rounded=0;orthogonalLoop=1;jettySize=auto;html=1;entryX=-0.06;entryY=0.5;entryDx=0;entryDy=0;entryPerimeter=0;endArrow=classic;endFill=1;" parent="mzdtHxwl5CKynUgDvnSu-6" source="cQgMK63ZiCmz1B0YtC4z-25" target="cQgMK63ZiCmz1B0YtC4z-43" edge="1">
          <mxGeometry as="geometry" />
        </mxCell>
        <mxCell id="cQgMK63ZiCmz1B0YtC4z-45" value="wms_station" style="aspect=fixed;html=1;points=[];align=center;image;fontSize=12;image=img/lib/azure2/databases/Azure_Database_MySQL_Server.svg;strokeWidth=2;" parent="mzdtHxwl5CKynUgDvnSu-6" vertex="1">
          <mxGeometry x="532.5" y="170" width="37.5" height="50" as="geometry" />
        </mxCell>
        <mxCell id="cQgMK63ZiCmz1B0YtC4z-47" style="edgeStyle=orthogonalEdgeStyle;rounded=0;orthogonalLoop=1;jettySize=auto;html=1;endArrow=classic;endFill=1;" parent="mzdtHxwl5CKynUgDvnSu-6" source="cQgMK63ZiCmz1B0YtC4z-43" target="cQgMK63ZiCmz1B0YtC4z-45" edge="1">
          <mxGeometry as="geometry" />
        </mxCell>
        <mxCell id="cQgMK63ZiCmz1B0YtC4z-54" value="更新操作台信息，推送待处理&lt;br&gt;数据，以及和输充线进行交互，&lt;br&gt;查询料箱商品信息" style="text;html=1;align=left;verticalAlign=middle;resizable=0;points=[];autosize=1;" parent="mzdtHxwl5CKynUgDvnSu-6" vertex="1">
          <mxGeometry x="514" width="180" height="50" as="geometry" />
        </mxCell>
        <mxCell id="cQgMK63ZiCmz1B0YtC4z-56" value="robot" style="shape=image;html=1;verticalAlign=top;verticalLabelPosition=bottom;labelBackgroundColor=#ffffff;imageAspect=0;aspect=fixed;image=https://cdn2.iconfinder.com/data/icons/free-1/128/Android__logo__robot-128.png;strokeWidth=2;" parent="mzdtHxwl5CKynUgDvnSu-6" vertex="1">
          <mxGeometry x="1241.7" y="65" width="40" height="40" as="geometry" />
        </mxCell>
        <mxCell id="cQgMK63ZiCmz1B0YtC4z-58" style="edgeStyle=orthogonalEdgeStyle;rounded=0;orthogonalLoop=1;jettySize=auto;html=1;endArrow=classic;endFill=1;" parent="mzdtHxwl5CKynUgDvnSu-6" source="cQgMK63ZiCmz1B0YtC4z-57" target="cQgMK63ZiCmz1B0YtC4z-56" edge="1">
          <mxGeometry as="geometry" />
        </mxCell>
        <mxCell id="cQgMK63ZiCmz1B0YtC4z-57" value="ss" style="aspect=fixed;html=1;points=[];align=center;image;fontSize=12;image=img/lib/azure2/ai_machine_learning/Cognitive_Services.svg;strokeWidth=2;" parent="mzdtHxwl5CKynUgDvnSu-6" vertex="1">
          <mxGeometry x="1141.7" y="67.5" width="49.58" height="35" as="geometry" />
        </mxCell>
        <mxCell id="cQgMK63ZiCmz1B0YtC4z-60" value="" style="edgeStyle=orthogonalEdgeStyle;rounded=0;orthogonalLoop=1;jettySize=auto;html=1;endArrow=classic;endFill=1;" parent="mzdtHxwl5CKynUgDvnSu-6" source="cQgMK63ZiCmz1B0YtC4z-59" target="cQgMK63ZiCmz1B0YtC4z-57" edge="1">
          <mxGeometry as="geometry" />
        </mxCell>
        <mxCell id="cQgMK63ZiCmz1B0YtC4z-59" value="mc" style="aspect=fixed;html=1;points=[];align=center;image;fontSize=12;image=img/lib/azure2/ai_machine_learning/Cognitive_Services.svg;strokeWidth=2;" parent="mzdtHxwl5CKynUgDvnSu-6" vertex="1">
          <mxGeometry x="1021.7" y="67.5" width="49.58" height="35" as="geometry" />
        </mxCell>
        <mxCell id="cQgMK63ZiCmz1B0YtC4z-63" style="edgeStyle=orthogonalEdgeStyle;rounded=0;orthogonalLoop=1;jettySize=auto;html=1;endArrow=classic;endFill=1;" parent="mzdtHxwl5CKynUgDvnSu-6" source="cQgMK63ZiCmz1B0YtC4z-43" target="cQgMK63ZiCmz1B0YtC4z-59" edge="1">
          <mxGeometry as="geometry" />
        </mxCell>
        <mxCell id="cQgMK63ZiCmz1B0YtC4z-61" value="路径调度，动作" style="text;html=1;align=center;verticalAlign=middle;resizable=0;points=[];autosize=1;" parent="mzdtHxwl5CKynUgDvnSu-6" vertex="1">
          <mxGeometry x="1116.49" y="30" width="100" height="20" as="geometry" />
        </mxCell>
        <mxCell id="cQgMK63ZiCmz1B0YtC4z-62" value="调度机器人到指定地点，&lt;br&gt;和输充线进行交互" style="text;html=1;align=left;verticalAlign=middle;resizable=0;points=[];autosize=1;" parent="mzdtHxwl5CKynUgDvnSu-6" vertex="1">
          <mxGeometry x="971.49" y="25" width="150" height="30" as="geometry" />
        </mxCell>
        <mxCell id="cQgMK63ZiCmz1B0YtC4z-70" style="edgeStyle=orthogonalEdgeStyle;rounded=0;orthogonalLoop=1;jettySize=auto;html=1;entryX=1.02;entryY=0.595;entryDx=0;entryDy=0;entryPerimeter=0;endArrow=classic;endFill=1;exitX=0.53;exitY=1.02;exitDx=0;exitDy=0;exitPerimeter=0;" parent="mzdtHxwl5CKynUgDvnSu-6" source="cQgMK63ZiCmz1B0YtC4z-64" target="cQgMK63ZiCmz1B0YtC4z-29" edge="1">
          <mxGeometry as="geometry">
            <mxPoint x="814" y="260" as="sourcePoint" />
            <Array as="points">
              <mxPoint x="814" y="395" />
            </Array>
          </mxGeometry>
        </mxCell>
        <mxCell id="cQgMK63ZiCmz1B0YtC4z-64" value="equip" style="aspect=fixed;html=1;points=[];align=center;image;fontSize=12;image=img/lib/azure2/app_services/App_Service_Environments.svg;strokeWidth=2;direction=east;" parent="mzdtHxwl5CKynUgDvnSu-6" vertex="1">
          <mxGeometry x="787.5" y="200" width="50" height="50" as="geometry" />
        </mxCell>
        <mxCell id="cQgMK63ZiCmz1B0YtC4z-80" value="" style="edgeStyle=orthogonalEdgeStyle;rounded=0;orthogonalLoop=1;jettySize=auto;html=1;endArrow=classic;endFill=1;entryX=0.47;entryY=0;entryDx=0;entryDy=0;entryPerimeter=0;" parent="mzdtHxwl5CKynUgDvnSu-6" source="cQgMK63ZiCmz1B0YtC4z-43" target="cQgMK63ZiCmz1B0YtC4z-64" edge="1">
          <mxGeometry as="geometry">
            <mxPoint x="811" y="190" as="targetPoint" />
            <Array as="points">
              <mxPoint x="595" y="140" />
              <mxPoint x="811" y="140" />
            </Array>
          </mxGeometry>
        </mxCell>
        <mxCell id="cQgMK63ZiCmz1B0YtC4z-81" value="&lt;div style=&quot;text-align: left&quot;&gt;&lt;span style=&quot;font-family: &amp;#34;helvetica&amp;#34;&quot;&gt;输充线告诉操作台，&lt;/span&gt;&lt;/div&gt;&lt;span style=&quot;font-family: &amp;#34;helvetica&amp;#34;&quot;&gt;&lt;div style=&quot;text-align: left&quot;&gt;那个料箱来了，操作&lt;/div&gt;&lt;/span&gt;&lt;span style=&quot;font-family: &amp;#34;helvetica&amp;#34;&quot;&gt;&lt;div style=&quot;text-align: left&quot;&gt;结束后，station&amp;nbsp;告诉&lt;/div&gt;&lt;/span&gt;&lt;span style=&quot;font-family: &amp;#34;helvetica&amp;#34;&quot;&gt;&lt;div style=&quot;text-align: left&quot;&gt;equip&amp;nbsp;可以放行&lt;/div&gt;&lt;/span&gt;" style="edgeLabel;html=1;align=center;verticalAlign=middle;resizable=0;points=[];" parent="cQgMK63ZiCmz1B0YtC4z-80" vertex="1" connectable="0">
          <mxGeometry x="-0.1961" y="3" relative="1" as="geometry">
            <mxPoint x="22" y="3" as="offset" />
          </mxGeometry>
        </mxCell>
        <mxCell id="cQgMK63ZiCmz1B0YtC4z-78" value="" style="edgeStyle=orthogonalEdgeStyle;rounded=0;orthogonalLoop=1;jettySize=auto;html=1;endArrow=classic;endFill=1;align=left;" parent="mzdtHxwl5CKynUgDvnSu-6" source="cQgMK63ZiCmz1B0YtC4z-59" target="cQgMK63ZiCmz1B0YtC4z-64" edge="1">
          <mxGeometry as="geometry">
            <mxPoint x="811" y="196" as="targetPoint" />
            <Array as="points">
              <mxPoint x="1047" y="140" />
              <mxPoint x="811" y="140" />
            </Array>
          </mxGeometry>
        </mxCell>
        <mxCell id="cQgMK63ZiCmz1B0YtC4z-82" value="&lt;span style=&quot;font-family: &amp;#34;helvetica&amp;#34;&quot;&gt;mc&amp;nbsp;查询输充线入口&lt;/span&gt;&lt;br style=&quot;font-family: &amp;#34;helvetica&amp;#34;&quot;&gt;&lt;span style=&quot;font-family: &amp;#34;helvetica&amp;#34;&quot;&gt;状态，以及输充线自&lt;/span&gt;&lt;br style=&quot;font-family: &amp;#34;helvetica&amp;#34;&quot;&gt;&lt;span style=&quot;font-family: &amp;#34;helvetica&amp;#34;&quot;&gt;身会反馈入口状态，&lt;/span&gt;&lt;br style=&quot;font-family: &amp;#34;helvetica&amp;#34;&quot;&gt;&lt;span style=&quot;font-family: &amp;#34;helvetica&amp;#34;&quot;&gt;如果同步，则进行下一步&lt;/span&gt;" style="edgeLabel;html=1;align=left;verticalAlign=middle;resizable=0;points=[];" parent="cQgMK63ZiCmz1B0YtC4z-78" vertex="1" connectable="0">
          <mxGeometry x="0.2326" y="2" relative="1" as="geometry">
            <mxPoint x="-30" as="offset" />
          </mxGeometry>
        </mxCell>
        <mxCell id="cQgMK63ZiCmz1B0YtC4z-66" value="wms_ess" style="aspect=fixed;html=1;points=[];align=center;image;fontSize=12;image=img/lib/azure2/databases/Azure_Database_MySQL_Server.svg;strokeWidth=2;" parent="mzdtHxwl5CKynUgDvnSu-6" vertex="1">
          <mxGeometry x="750" y="310" width="37.5" height="50" as="geometry" />
        </mxCell>
        <mxCell id="cQgMK63ZiCmz1B0YtC4z-69" style="edgeStyle=orthogonalEdgeStyle;rounded=0;orthogonalLoop=1;jettySize=auto;html=1;endArrow=classic;endFill=1;exitX=0.51;exitY=1.04;exitDx=0;exitDy=0;exitPerimeter=0;" parent="mzdtHxwl5CKynUgDvnSu-6" source="cQgMK63ZiCmz1B0YtC4z-64" target="cQgMK63ZiCmz1B0YtC4z-66" edge="1">
          <mxGeometry as="geometry">
            <mxPoint x="813" y="260" as="sourcePoint" />
          </mxGeometry>
        </mxCell>
        <mxCell id="mzdtHxwl5CKynUgDvnSu-5" value="服务调用关系/系统结构" style="text;html=1;align=center;verticalAlign=middle;resizable=0;points=[];autosize=1;" vertex="1" parent="mzdtHxwl5CKynUgDvnSu-6">
          <mxGeometry x="600" y="410" width="140" height="20" as="geometry" />
        </mxCell>
        <mxCell id="mzdtHxwl5CKynUgDvnSu-42" value="" style="group" vertex="1" connectable="0" parent="1">
          <mxGeometry x="-560" y="940" width="440" height="380" as="geometry" />
        </mxCell>
        <mxCell id="mzdtHxwl5CKynUgDvnSu-24" style="edgeStyle=orthogonalEdgeStyle;rounded=0;orthogonalLoop=1;jettySize=auto;html=1;entryX=0.5;entryY=0;entryDx=0;entryDy=0;entryPerimeter=0;" edge="1" parent="mzdtHxwl5CKynUgDvnSu-42" source="mzdtHxwl5CKynUgDvnSu-18">
          <mxGeometry relative="1" as="geometry">
            <mxPoint x="35" y="160" as="targetPoint" />
          </mxGeometry>
        </mxCell>
        <mxCell id="mzdtHxwl5CKynUgDvnSu-25" style="edgeStyle=orthogonalEdgeStyle;rounded=0;orthogonalLoop=1;jettySize=auto;html=1;entryX=0.5;entryY=0;entryDx=0;entryDy=0;entryPerimeter=0;" edge="1" parent="mzdtHxwl5CKynUgDvnSu-42" source="mzdtHxwl5CKynUgDvnSu-18">
          <mxGeometry relative="1" as="geometry">
            <mxPoint x="171.4000000000001" y="160" as="targetPoint" />
          </mxGeometry>
        </mxCell>
        <mxCell id="mzdtHxwl5CKynUgDvnSu-26" style="edgeStyle=orthogonalEdgeStyle;rounded=0;orthogonalLoop=1;jettySize=auto;html=1;" edge="1" parent="mzdtHxwl5CKynUgDvnSu-42" source="mzdtHxwl5CKynUgDvnSu-18">
          <mxGeometry relative="1" as="geometry">
            <mxPoint x="285" y="160" as="targetPoint" />
          </mxGeometry>
        </mxCell>
        <mxCell id="mzdtHxwl5CKynUgDvnSu-27" style="edgeStyle=orthogonalEdgeStyle;rounded=0;orthogonalLoop=1;jettySize=auto;html=1;" edge="1" parent="mzdtHxwl5CKynUgDvnSu-42" source="mzdtHxwl5CKynUgDvnSu-18">
          <mxGeometry relative="1" as="geometry">
            <mxPoint x="405" y="160" as="targetPoint" />
          </mxGeometry>
        </mxCell>
        <mxCell id="mzdtHxwl5CKynUgDvnSu-18" value="" style="rounded=0;whiteSpace=wrap;html=1;strokeWidth=2;" vertex="1" parent="mzdtHxwl5CKynUgDvnSu-42">
          <mxGeometry x="30" width="390" height="120" as="geometry" />
        </mxCell>
        <mxCell id="mzdtHxwl5CKynUgDvnSu-7" value="robot01" style="shape=image;html=1;verticalAlign=top;verticalLabelPosition=bottom;labelBackgroundColor=#ffffff;imageAspect=0;aspect=fixed;image=https://cdn2.iconfinder.com/data/icons/free-1/128/Android__logo__robot-128.png" vertex="1" parent="mzdtHxwl5CKynUgDvnSu-42">
          <mxGeometry x="10" y="290" width="50" height="50" as="geometry" />
        </mxCell>
        <mxCell id="mzdtHxwl5CKynUgDvnSu-8" value="robot02" style="shape=image;html=1;verticalAlign=top;verticalLabelPosition=bottom;labelBackgroundColor=#ffffff;imageAspect=0;aspect=fixed;image=https://cdn2.iconfinder.com/data/icons/free-1/128/Android__logo__robot-128.png" vertex="1" parent="mzdtHxwl5CKynUgDvnSu-42">
          <mxGeometry x="150" y="290" width="50" height="50" as="geometry" />
        </mxCell>
        <mxCell id="mzdtHxwl5CKynUgDvnSu-9" value="robot03" style="shape=image;html=1;verticalAlign=top;verticalLabelPosition=bottom;labelBackgroundColor=#ffffff;imageAspect=0;aspect=fixed;image=https://cdn2.iconfinder.com/data/icons/free-1/128/Android__logo__robot-128.png" vertex="1" parent="mzdtHxwl5CKynUgDvnSu-42">
          <mxGeometry x="260" y="290" width="50" height="50" as="geometry" />
        </mxCell>
        <mxCell id="mzdtHxwl5CKynUgDvnSu-13" value="普通工作站" style="pointerEvents=1;shadow=0;dashed=0;html=1;strokeColor=none;fillColor=#4495D1;labelPosition=center;verticalLabelPosition=bottom;verticalAlign=top;align=center;outlineConnect=0;shape=mxgraph.veeam.2d.workstation;" vertex="1" parent="mzdtHxwl5CKynUgDvnSu-42">
          <mxGeometry x="57.700000000000045" y="24.40000000000009" width="76.4" height="51.2" as="geometry" />
        </mxCell>
        <mxCell id="mzdtHxwl5CKynUgDvnSu-16" value="缓存工作站" style="pointerEvents=1;shadow=0;dashed=0;html=1;strokeColor=none;fillColor=#4495D1;labelPosition=center;verticalLabelPosition=bottom;verticalAlign=top;align=center;outlineConnect=0;shape=mxgraph.veeam.2d.workstation;" vertex="1" parent="mzdtHxwl5CKynUgDvnSu-42">
          <mxGeometry x="185.89999999999998" y="24.40000000000009" width="76.4" height="51.2" as="geometry" />
        </mxCell>
        <mxCell id="mzdtHxwl5CKynUgDvnSu-17" value="输送线工作站" style="pointerEvents=1;shadow=0;dashed=0;html=1;strokeColor=none;fillColor=#4495D1;labelPosition=center;verticalLabelPosition=bottom;verticalAlign=top;align=center;outlineConnect=0;shape=mxgraph.veeam.2d.workstation;" vertex="1" parent="mzdtHxwl5CKynUgDvnSu-42">
          <mxGeometry x="315.9" y="24.40000000000009" width="76.4" height="51.2" as="geometry" />
        </mxCell>
        <mxCell id="mzdtHxwl5CKynUgDvnSu-19" value="工作站-一个工作站拥有多个箱子槽位" style="text;html=1;strokeColor=none;fillColor=none;align=center;verticalAlign=middle;whiteSpace=wrap;rounded=0;" vertex="1" parent="mzdtHxwl5CKynUgDvnSu-42">
          <mxGeometry x="100" width="240.1" height="20" as="geometry" />
        </mxCell>
        <mxCell id="mzdtHxwl5CKynUgDvnSu-34" style="edgeStyle=orthogonalEdgeStyle;rounded=0;orthogonalLoop=1;jettySize=auto;html=1;entryX=0.5;entryY=0;entryDx=0;entryDy=0;" edge="1" parent="mzdtHxwl5CKynUgDvnSu-42" source="mzdtHxwl5CKynUgDvnSu-29" target="mzdtHxwl5CKynUgDvnSu-7">
          <mxGeometry relative="1" as="geometry" />
        </mxCell>
        <mxCell id="mzdtHxwl5CKynUgDvnSu-29" value="箱子槽位" style="shape=image;html=1;verticalAlign=top;verticalLabelPosition=bottom;labelBackgroundColor=#ffffff;imageAspect=0;aspect=fixed;image=https://cdn0.iconfinder.com/data/icons/library-9/64/Trolley-book-shelf-cart-education-school-library-128.png;strokeWidth=2;" vertex="1" parent="mzdtHxwl5CKynUgDvnSu-42">
          <mxGeometry y="160" width="70" height="70" as="geometry" />
        </mxCell>
        <mxCell id="mzdtHxwl5CKynUgDvnSu-30" value="箱子槽位" style="shape=image;html=1;verticalAlign=top;verticalLabelPosition=bottom;labelBackgroundColor=#ffffff;imageAspect=0;aspect=fixed;image=https://cdn0.iconfinder.com/data/icons/library-9/64/Trolley-book-shelf-cart-education-school-library-128.png;strokeWidth=2;" vertex="1" parent="mzdtHxwl5CKynUgDvnSu-42">
          <mxGeometry x="370" y="160" width="70" height="70" as="geometry" />
        </mxCell>
        <mxCell id="mzdtHxwl5CKynUgDvnSu-36" style="edgeStyle=orthogonalEdgeStyle;rounded=0;orthogonalLoop=1;jettySize=auto;html=1;" edge="1" parent="mzdtHxwl5CKynUgDvnSu-42" source="mzdtHxwl5CKynUgDvnSu-31" target="mzdtHxwl5CKynUgDvnSu-9">
          <mxGeometry relative="1" as="geometry" />
        </mxCell>
        <mxCell id="mzdtHxwl5CKynUgDvnSu-31" value="箱子槽位" style="shape=image;html=1;verticalAlign=top;verticalLabelPosition=bottom;labelBackgroundColor=#ffffff;imageAspect=0;aspect=fixed;image=https://cdn0.iconfinder.com/data/icons/library-9/64/Trolley-book-shelf-cart-education-school-library-128.png;strokeWidth=2;" vertex="1" parent="mzdtHxwl5CKynUgDvnSu-42">
          <mxGeometry x="250" y="160" width="70" height="70" as="geometry" />
        </mxCell>
        <mxCell id="mzdtHxwl5CKynUgDvnSu-35" style="edgeStyle=orthogonalEdgeStyle;rounded=0;orthogonalLoop=1;jettySize=auto;html=1;entryX=0.5;entryY=0;entryDx=0;entryDy=0;" edge="1" parent="mzdtHxwl5CKynUgDvnSu-42" source="mzdtHxwl5CKynUgDvnSu-32" target="mzdtHxwl5CKynUgDvnSu-8">
          <mxGeometry relative="1" as="geometry" />
        </mxCell>
        <mxCell id="mzdtHxwl5CKynUgDvnSu-32" value="箱子槽位" style="shape=image;html=1;verticalAlign=top;verticalLabelPosition=bottom;labelBackgroundColor=#ffffff;imageAspect=0;aspect=fixed;image=https://cdn0.iconfinder.com/data/icons/library-9/64/Trolley-book-shelf-cart-education-school-library-128.png;strokeWidth=2;" vertex="1" parent="mzdtHxwl5CKynUgDvnSu-42">
          <mxGeometry x="140" y="160" width="70" height="70" as="geometry" />
        </mxCell>
        <mxCell id="mzdtHxwl5CKynUgDvnSu-37" value="robot04" style="shape=image;html=1;verticalAlign=top;verticalLabelPosition=bottom;labelBackgroundColor=#ffffff;imageAspect=0;aspect=fixed;image=https://cdn2.iconfinder.com/data/icons/free-1/128/Android__logo__robot-128.png" vertex="1" parent="mzdtHxwl5CKynUgDvnSu-42">
          <mxGeometry x="380" y="290" width="50" height="50" as="geometry" />
        </mxCell>
        <mxCell id="mzdtHxwl5CKynUgDvnSu-38" style="edgeStyle=orthogonalEdgeStyle;rounded=0;orthogonalLoop=1;jettySize=auto;html=1;entryX=0.5;entryY=0;entryDx=0;entryDy=0;" edge="1" parent="mzdtHxwl5CKynUgDvnSu-42" source="mzdtHxwl5CKynUgDvnSu-30" target="mzdtHxwl5CKynUgDvnSu-37">
          <mxGeometry relative="1" as="geometry" />
        </mxCell>
        <mxCell id="mzdtHxwl5CKynUgDvnSu-41" value="实体关系图，待补充" style="text;html=1;align=center;verticalAlign=middle;resizable=0;points=[];autosize=1;" vertex="1" parent="mzdtHxwl5CKynUgDvnSu-42">
          <mxGeometry x="170" y="360" width="120" height="20" as="geometry" />
        </mxCell>
      </root>
    </mxGraphModel>
  </diagram>
</mxfile>
